<svg xmlns="http://www.w3.org/2000/svg" xmlns:xlink="http://www.w3.org/1999/xlink" width="221.44" height="223.59" viewBox="1107.94 1118.42 221.44 223.59"><path d="M1222.56 1258.26V1342h-45.31l-1.1-.44c0-5.34.4-10.12 1.08-14.34q.49-2.93 1.16-5.5.74-3.07 1.71-5.69l.4-1.04.46-1.12.48-1.08q.47-1.08.98-2.05a37 37 0 0 1 2.35-4 38 38 0 0 1 2.56-3.39l.74-.83.74-.8.75-.73q.36-.37.74-.7.75-.68 1.49-1.27a30 30 0 0 1 6.69-4.1q.37-.14.73-.32 1.15-.45 2.08-.73c1.6-.5 2.58-.62 2.58-.62q.26 0 .5-.04c1.43-.23 2.58-1.48 3.52-3.44a27 27 0 0 0 1.73-5.51c.18-.86.34-1.7.48-2.63q.35-2.33.63-4.86c.07-1.03.18-2.03.29-3.1.41-5.13.52-10.73.52-16.04 0 0 6.08.63 11.02.63" style="fill:#e5c69f"/><path d="M1269.16 1341.56s-.4.15-1.07.44h-45.53v-83.74h.1c4.92 0 11.07-.63 11.07-.63 0 5.26.11 10.8.51 15.93q.19 1.52.3 3.02.28 2.65.67 4.98v.03c.08.7.21 1.33.34 2 .44 2.17.98 4.1 1.64 5.63.81 1.92 1.8 3.25 3 3.77q.57.26 1.22.26s1.73.2 4.34 1.23a28 28 0 0 1 5.82 3.1q.44.29.88.62l.76.58q.82.62 1.64 1.38.32.28.63.58.37.33.72.71.26.22.48.48.49.5.98 1.09.26.27.5.56 1.1 1.29 2.14 2.83.45.64.88 1.33a46 46 0 0 1 4.02 8.3 54 54 0 0 1 1.73 5.67q.67 2.58 1.14 5.51c.7 4.22 1.1 9 1.1 14.34" style="fill:#f2dab5"/><defs><path id="a" d="M1210.1 1273.45h25.11v14.8h-25.11z"/></defs><clipPath id="b"><use xlink:href="#a" style="overflow:visible"/></clipPath><path d="M1235.2 1281.4v.04a14.8 14.8 0 0 1-12.56 6.82h-.08c-7.18-.04-11.39-5.24-12.46-6.78q.35-2.3.63-4.84.11-1.48.3-3.08c3.5.88 7.33 1.43 11.39 1.5h.14c4.2-.07 8.08-.65 11.69-1.6q.17 1.49.3 3 .27 2.64.66 4.94" style="clip-path:url(#b);fill:#c69f82"/><path d="M1222.05 1162.8c-48 0-48.26 40.12-46.12 66.4-3.28-6.24-13.05-4.33-12.24 5.49.77 9.45 14.73 14.27 14.34 13.22 7.27 19.43 26.5 34.08 44.02 34.08h.37v-119.2z" style="fill:#d7ae89"/><path d="M1166.75 1230.55a4.52 4.52 0 0 1 6.93-1.32c.96.91 1.73 2.09 1.14 4.32-.33 1.28-1.65 1.4-1.36 3.3.37 2.16 1.36 2.27 1.95 2.79.56.47 1.26.84 1.59 1.75.37.92.4 1.87.22 2.72-.37 1.53-2.62.29-4.13-.37-1-.48-4.16-3.15-4.97-4.03-2-2.28-2.95-6.67-1.37-9.16" style="fill:#b48e76"/><path d="M1222.3 1162.8c48 0 48.26 40.12 46.16 66.4 3.28-6.24 13.01-4.33 12.2 5.49-.74 9.45-14.72 14.27-14.34 13.22-7.08 19.43-26.5 34.08-44.01 34.08h-.26l-.11-119.2z" style="fill:#e1be9d"/><path d="M1277.6 1230.55c-2.36-3.81-6-2.16-6.93-1.32-.96.91-1.7 2.09-1.14 4.32.33 1.28 1.66 1.4 1.36 3.3-.37 2.16-1.36 2.27-1.92 2.79-.55.47-1.28.84-1.62 1.75-.33.92-.4 1.87-.22 2.72.37 1.53 2.62.29 4.13-.37 1.03-.48 4.17-3.15 4.98-4.03 2.03-2.28 2.95-6.67 1.36-9.16" style="fill:#b48e76"/><path d="M1221.67 1174.12c-15.78 0-27.35 4.58-34.32 13.6-9.77 12.63-9.4 31.9-5.83 45.76 1.11 4.25 1.7 15.64 2.44 19.82 3.43 18.72 24.1 28.69 37.7 28.69h.38v-107.87h-.22" style="fill:#e5c69f"/><path d="M1255.95 1187.75c-6.93-8.98-18.36-13.56-33.91-13.63V1282c15.56-.18 34.17-11.1 37.34-28.69.78-4.18 1.33-15.57 2.44-19.82 3.6-13.82 3.98-33.05-5.87-45.73" style="fill:#f2dab5"/><path d="m1219.3 1262.82-.36-.08z" style="fill:none"/><path d="m1219.52 1262.87-.23-.05zm-.58-.13-.2-.06h-.01zm3.24-.02" style="fill:#c3987d"/><path d="M1179 1207.74q-.62 2.16-.92 4.66s.63-2.63 2.03-6.52c-.6.83-1 1.5-1.1 1.86" style="fill:none"/><path d="m1208.64 1174.39-.2.2.03.07q.08-.16.17-.27m-30.56 38.01" style="fill:#473217"/><path d="m1219.42 1260.63-.37-.08z" style="fill:none"/><path d="m1219.65 1260.68-.23-.05zm-.6-.13-.2-.06h-.02zm3.34-.02" style="fill:#c1977d"/><path d="M1212.66 1248.77c-.19-3.83 7.03-1.4 9.41-1.28 1.88.1 7.6-1.2 8.1-.87 3.36 2.27-3.57 6.84-8.22 6.84-1.24 0-9.18-2.38-9.3-4.7" style="fill:#e1bd9c"/><path d="M1187.6 1216.22s3.67 15.02 9.96 16.25c6.28 1.23 13.09-1.21 13.09-1.21s.64-17.65-2.57-19.96c-3.22-2.32-10.63-5.67-20.47 4.92" style="fill:#fff"/><path d="m1210.65 1231.21-.46.18c-.08-5.42-.58-12.85-2.6-14.28-2.98-2.19-9.73-5.27-18.75 3.16a43 43 0 0 1-1.23-4.1c9.86-10.6 17.28-7.26 20.47-4.94 3.22 2.31 2.57 19.98 2.57 19.98" style="fill:#dcbc9b"/><path d="M1206.93 1223.56a6.19 6.19 0 1 1-12.37 0 6.19 6.19 0 0 1 12.37 0" style="fill:#4d2a12"/><path d="M1200.46 1227.68c-1.79-.14-3.16-1.95-3-3.93s1.8-3.53 3.6-3.38c1.78.15 3.15 1.95 3 3.93-.17 1.98-1.82 3.53-3.6 3.38" style="fill:#80401c"/><path d="M1200.61 1226.97c-1.24-.1-2.53-1.47-2.4-3.15.14-1.69 1.64-2.83 2.88-2.72 1.25.1 2.53 1.47 2.4 3.15-.14 1.69-1.64 2.82-2.88 2.72" style="fill:#241c09"/><path d="M1199.6 1222.82c-.05.61-.67 1.05-1.39 1-.71-.07-1.25-.6-1.2-1.21s.67-1.06 1.38-1c.72.06 1.26.6 1.21 1.21m4.02 3.52c-.03.3-.34.52-.7.5-.36-.04-.63-.31-.6-.61.02-.3.33-.53.69-.5s.63.3.6.6" style="fill:#fff"/><path d="m1219.52 1262.4-.37-.08z" style="fill:none"/><path d="m1219.75 1262.45-.23-.05zm-.6-.13-.2-.06h-.02zm3.33-.01" style="fill:#c1977d"/><path d="m1219.22 1261.97-.4-.09z" style="fill:none"/><path d="m1219.47 1262.03-.25-.06zm-.65-.15-.22-.06zm3.58-.01" style="fill:#c3987d"/><path d="m1219.04 1261.35-.4-.1z" style="fill:none"/><path d="m1219.28 1261.4-.24-.05zm-.64-.14-.22-.07h-.01zm3.57-.02" style="fill:#c3987d"/><path d="M1219.62 1261.26q-.24-.04-.38-.09z" style="fill:none"/><path d="m1219.86 1261.31-.24-.05zm-.62-.14-.22-.06zm3.45-.01" style="fill:#c3987d"/><path d="M1256.85 1215.71s-3.66 15.02-9.95 16.25c-6.29 1.22-13.1-1.21-13.1-1.21s-.64-17.66 2.58-19.96c3.21-2.32 10.63-5.67 20.47 4.92" style="fill:#fff"/><path d="M1233.8 1230.7q-.01-.02.47.18c.08-5.42.58-12.85 2.59-14.28 2.99-2.19 9.74-5.27 18.75 3.16a43 43 0 0 0 1.23-4.1c-9.85-10.6-17.28-7.26-20.47-4.94-3.22 2.31-2.57 19.98-2.57 19.98" style="fill:#dcbc9b"/><path d="M1237.52 1223.05a6.19 6.19 0 1 0 12.38 0 6.19 6.19 0 0 0-12.38 0" style="fill:#4d2a12"/><path d="M1244 1227.17c1.78-.15 3.16-1.95 3-3.93s-1.81-3.53-3.6-3.38-3.16 1.94-3 3.93c.16 1.98 1.81 3.53 3.6 3.38" style="fill:#80401c"/><path d="M1243.84 1226.46c1.25-.1 2.54-1.47 2.4-3.15-.14-1.69-1.63-2.83-2.88-2.72-1.24.1-2.53 1.47-2.4 3.15.14 1.68 1.64 2.82 2.88 2.72" style="fill:#241c09"/><path d="M1244.85 1222.31c.05.6.68 1.05 1.39 1 .72-.07 1.26-.61 1.2-1.21-.04-.61-.66-1.06-1.38-1s-1.26.6-1.21 1.21m-4.01 3.52c.02.3.34.52.7.49s.62-.3.6-.6-.34-.53-.7-.5-.63.3-.6.6" style="fill:#fff"/><path d="M1214.42 1215.98c-.05-.07-1.19-1.8-3.52-3.6a20 20 0 0 0-10.01-4.16 24 24 0 0 0-5.8.16 22 22 0 0 0-4.71 1.44c-1 .34-1.78.82-2.4 1.2q-.37.23-.7.4l-3 1.9 3.47-.82.52-.14c.72-.19 1.6-.42 2.65-.57l.75-.14q.64-.15 1.36-.2l1.62-.11.73-.06c1.92-.02 3.53.13 4.97.46 1.58.27 3.2.77 4.67 1.46 1.4.67 2.74 1.33 3.79 2.1 2.11 1.41 3.29 2.6 3.3 2.6a1.5 1.5 0 0 0 2.34-1.87zm43.04-4.57q-.3-.16-.65-.39c-.63-.38-1.42-.86-2.38-1.2a22 22 0 0 0-4.77-1.44c-2.18-.3-4.07-.34-5.78-.15a20.5 20.5 0 0 0-10 4.16 16 16 0 0 0-3.52 3.59l-.02.03c-.38.6-.3 1.39.2 1.9a1.5 1.5 0 0 0 2.13 0l.01-.02c.11-.11 1.25-1.23 3.3-2.6a24 24 0 0 1 3.77-2.09c1.49-.69 3.1-1.2 4.7-1.47q2.1-.49 4.93-.45l.76.06 1.62.11q.7.05 1.35.2.38.08.75.13c1.04.16 1.93.4 2.65.58l.53.14 3.46.81z"/><path d="m1217.3 1267.65-.37-.09z" style="fill:none"/><path d="m1217.53 1267.7-.23-.06zm-.6-.14-.2-.06h-.01zm3.32-.01" style="fill:#c5997d"/><path d="m1217.13 1267.06-.37-.08z" style="fill:none"/><path d="m1217.36 1267.11-.23-.05zm-.6-.13-.2-.06h-.01zm3.31-.01" style="fill:#c5997d"/><path d="m1217.67 1266.98-.35-.08z" style="fill:none"/><path d="m1217.9 1267.03-.23-.05zm-.59-.13-.2-.05zm3.21-.01" style="fill:#c5997d"/><path d="M1212.86 1268.82c-.17-2.39 6.65.5 8.9.57 1.78.06 7.16-.36 7.65-.54 3.76-1.4-.2 3.99-7.77 4.27-3.46.14-8.67-2.85-8.78-4.3" style="fill:#f3dbb5"/><path d="M1235.37 1263.09c-4.33-.81-13.45.05-13.45.05-7.52 1.25-13.41-.08-13.45-.03-.18.02 6 8.23 13.34 7.85 7.35.38 13.74-7.85 13.56-7.87" style="fill:#c56b70"/><path d="M1226.27 1261.35c-1.95-.21-3.34 1.2-4.34 1.1-1.02.09-2.34-.82-4.3-.84-2.77-.02-4.12-.26-9.16 1.5.18.35 3.41 2.22 9.47 2.32.09 0 1.71.92 4.02.9 1.45 0 3.43-.97 3.51-.97 6.07-.1 9.77-1.9 9.94-2.23-6.67-2.07-6.14-1.8-9.14-1.78" style="fill:#d87a77"/><path d="M1206.9 1293.21a2.84 2.84 0 1 1-5.68 0 2.84 2.84 0 0 1 5.68 0" style="fill:#fdfefe"/><path d="M1209.64 1298.15a2.84 2.84 0 1 1-5.68 0 2.84 2.84 0 0 1 5.68 0" style="fill:#bc0c24"/><path d="M1213.08 1302.69a2.84 2.84 0 1 1-5.68 0 2.84 2.84 0 0 1 5.68 0" style="fill:#fdfefe"/><path d="M1217.39 1306.36a2.84 2.84 0 1 1-5.68 0 2.84 2.84 0 0 1 5.68 0" style="fill:#bc0c24"/><path d="M1222.68 1308.47a2.84 2.84 0 1 1-5.68 0 2.84 2.84 0 0 1 5.68 0" style="fill:#fdfefe"/><path d="M1225.52 1304.55a2.84 2.84 0 1 1 0 5.68 2.84 2.84 0 0 1 0-5.68" style="fill:#bc0c24"/><path d="M1230.46 1301.8a2.84 2.84 0 1 1 0 5.69 2.84 2.84 0 0 1 0-5.68" style="fill:#fdfefe"/><path d="M1235 1298.37a2.84 2.84 0 1 1 0 5.68 2.84 2.84 0 0 1 0-5.68" style="fill:#bc0c24"/><path d="M1238.66 1294.06a2.84 2.84 0 1 1 0 5.68 2.84 2.84 0 0 1 0-5.68" style="fill:#fdfefe"/><path d="M1240.77 1288.77a2.84 2.84 0 1 1 0 5.67 2.84 2.84 0 0 1 0-5.67" style="fill:#bc0c24"/><path d="M1281.94 1189.63a95 95 0 0 0-2.2-5.45v-.74c0-7.28-6.92-16.71-17.9-25.89-11-9.16-17.93-7.27-27.03-7l-.07.14c-4-.8-25.5-4.76-38.3-.37-14.14 4.86-25.71 13.19-33.89 35.58-8.16 22.38-1.46 40.7.12 48.53 5.02 24.76 29.1 40.45 29.1 40.45s-6.07-6.62-8.8-13.21a68 68 0 0 1-5.25-26.85q0-1.6.27-3.24c3.44-52.53 51.9-28.14 51.9-28.14l-.02.03s27.44 7.13 23.4 43.5c0 0 10.09-12.66 5.22-29.98 3.84 5.84 8.29 14.2 8.29 21.56a68 68 0 0 1-5.26 26.85c-2.72 6.6-8.8 13.21-8.8 13.21s24.08-15.68 29.1-40.45c1.58-7.82 8.29-26.15.12-48.53" style="fill:#e97869"/><path d="M1206.93 1319.03h28.89v22.98h-28.89z" style="fill:#fdfefe"/><path d="M1195.34 1301.05a8.05 8.05 0 0 0-10.35.06c-5.42 4.66-10.68 12.1-13.33 23.99v.06a4.1 4.1 0 0 0 3.2 4.8l9.36 2.22v9.82h35.26v-11.04c0-10.03-5.78-19.05-14.71-23.64a53 53 0 0 1-9.43-6.27m78.5 24.09-.01-.05c-1.72-8.02-5.48-17.27-13.49-23.9a8.2 8.2 0 0 0-10.4-.07 56 56 0 0 1-9.41 6.2 26.3 26.3 0 0 0-14.27 23.42V1342h34.8v-9.82l9.57-2.26a4.1 4.1 0 0 0 3.2-4.79" style="fill:#bc0c24"/></svg>