<svg xmlns="http://www.w3.org/2000/svg" xmlns:xlink="http://www.w3.org/1999/xlink" width="223.47" height="223.72" viewBox="1553.02 894.82 223.47 223.72"><path d="M1667.97 1034.6v84.07h-45.32l-1.1-.45c0-7.92.86-14.54 2.27-20.1a53 53 0 0 1 3.16-9.08c5.93-12.96 15.24-17.3 19.72-18.69 1.6-.5 2.58-.61 2.58-.61.17 0 .3-.02.48-.05h.01c1.43-.23 2.6-1.47 3.52-3.45a26 26 0 0 0 1.74-5.53c.2-.86.33-1.7.49-2.65q.32-2.32.63-4.88c.06-1.03.18-2.03.29-3.1.4-5.15.5-10.78.5-16.11 0 0 6.1.63 11.03.63" style="fill:#e5c69f"/><path d="m1714.6 1118.22-1.06.45h-45.57v-84.07h.13c4.9 0 11.06-.63 11.06-.63 0 5.3.1 10.84.52 16q.16 1.52.29 3.03.28 2.66.66 5v.04c.08.7.21 1.33.34 2a30 30 0 0 0 1.64 5.64c.81 1.92 1.81 3.26 3.01 3.8q.57.26 1.21.26l.7.12c.75.16 2.04.46 3.66 1.1 4.86 1.93 12.74 6.66 17.97 18.08q.8 1.67 1.48 3.57.95 2.56 1.69 5.51a81 81 0 0 1 2.27 20.1" style="fill:#f2dab5"/><defs><path id="a" d="M1655.52 1049.86h25.12v14.86h-25.12z"/></defs><clipPath id="b"><use xlink:href="#a" style="overflow:visible"/></clipPath><path d="M1680.63 1057.84v.04a14.8 14.8 0 0 1-12.57 6.84h-.08c-7.19-.04-11.4-5.26-12.47-6.8q.35-2.33.63-4.86.13-1.5.3-3.09c3.5.89 7.34 1.44 11.4 1.51h.14c4.2-.07 8.08-.66 11.7-1.62q.17 1.52.29 3.02.27 2.64.66 4.96" style="clip-path:url(#b);fill:#c69f82"/><path d="M1667.47 938.8c-48.03 0-48.29 40.27-46.15 66.64-3.28-6.26-13.06-4.34-12.24 5.51.77 9.49 14.73 14.33 14.34 13.28 7.28 19.5 26.52 34.2 44.04 34.2h.37V938.8z" style="fill:#d7ae89"/><path d="M1612.14 1006.8a4.5 4.5 0 0 1 6.93-1.33c.96.92 1.74 2.1 1.14 4.34-.33 1.29-1.66 1.4-1.36 3.31.37 2.17 1.37 2.28 1.96 2.8.55.48 1.25.84 1.58 1.76.37.92.4 1.88.22 2.72-.37 1.55-2.62.3-4.13-.36-1-.48-4.17-3.17-4.98-4.05-1.99-2.28-2.95-6.7-1.36-9.2" style="fill:#b48e76"/><path d="M1667.72 938.8c48.03 0 48.29 40.27 46.18 66.64 3.29-6.26 13.03-4.34 12.21 5.51-.73 9.49-14.73 14.33-14.34 13.28-7.09 19.5-26.52 34.2-44.04 34.2h-.26l-.11-119.63z" style="fill:#e1be9d"/><path d="M1723.05 1006.8c-2.36-3.83-6.01-2.17-6.93-1.33-.96.92-1.7 2.1-1.14 4.34.33 1.29 1.65 1.4 1.36 3.31-.37 2.17-1.36 2.28-1.92 2.8-.55.48-1.29.84-1.62 1.76s-.4 1.88-.22 2.72c.37 1.55 2.62.3 4.13-.36 1.03-.48 4.17-3.17 4.98-4.05 2.03-2.28 2.95-6.7 1.36-9.2" style="fill:#b48e76"/><path d="M1667.09 950.16c-15.79 0-27.37 4.6-34.34 13.65-9.78 12.68-9.4 32.03-5.83 45.93 1.1 4.27 1.7 15.7 2.43 19.9 3.43 18.79 24.13 28.79 37.74 28.79h.37V950.16h-.22" style="fill:#e5c69f"/><path d="M1701.4 963.84c-6.94-9-18.38-13.6-33.94-13.68v108.27c15.56-.19 34.19-11.14 37.36-28.8.78-4.19 1.33-15.63 2.44-19.9 3.61-13.86 3.98-33.16-5.87-45.89" style="fill:#f2dab5"/><path d="m1664.71 1039.19-.36-.08z" style="fill:none"/><path d="m1664.94 1039.24-.23-.05zm-.59-.14-.2-.05zm3.25-.01" style="fill:#c3987d"/><path d="M1658.3 1025.96c-.19-3.74 6.85-1.37 9.16-1.25 1.84.1 7.41-1.18 7.89-.85 3.28 2.22-3.47 6.69-8 6.69-1.21 0-8.95-2.33-9.06-4.59" style="fill:#e1be9d"/><path d="M1624.4 983.9q-.64 2.17-.93 4.68s.63-2.64 2.03-6.54c-.6.84-1 1.5-1.1 1.87" style="fill:none"/><path d="m1654.05 950.43-.2.2.03.07q.08-.16.17-.27m-30.58 38.15" style="fill:#473217"/><path d="m1664.84 1037-.37-.1z" style="fill:none"/><path d="m1665.07 1037.04-.23-.05zm-.6-.14-.21-.05zm3.33-.01" style="fill:#c1977d"/><path d="M1633 992.42s3.67 15.08 9.96 16.3c6.29 1.24 13.1-1.2 13.1-1.2s.65-17.73-2.57-20.04c-3.22-2.33-10.64-5.69-20.48 4.94" style="fill:#fff"/><path d="m1656.07 1007.47-.47.17c-.08-5.43-.58-12.9-2.6-14.33-2.99-2.2-9.74-5.29-18.76 3.17-.82-2.34-1.23-4.1-1.23-4.1 9.86-10.66 17.29-7.3 20.48-4.97 3.23 2.32 2.58 20.06 2.58 20.06" style="fill:#dcbc9b"/><path d="M1652.34 999.79a6.2 6.2 0 1 1-12.4.02 6.2 6.2 0 0 1 12.4-.02" style="fill:#4d2a12"/><path d="M1645.86 1003.92c-1.78-.14-3.16-1.95-3-3.94.17-2 1.81-3.55 3.6-3.4 1.8.15 3.16 1.95 3 3.94-.16 2-1.81 3.55-3.6 3.4" style="fill:#80401c"/><path d="M1646.02 1003.2c-1.25-.1-2.54-1.47-2.4-3.16s1.63-2.83 2.88-2.73c1.24.1 2.53 1.48 2.4 3.17-.14 1.69-1.64 2.83-2.88 2.73" style="fill:#241c09"/><path d="M1645 999.04c-.04.61-.67 1.06-1.38 1-.72-.06-1.26-.6-1.21-1.21s.67-1.06 1.39-1 1.26.6 1.2 1.21m4.02 3.53c-.02.3-.34.53-.7.5s-.62-.3-.6-.6c.03-.31.34-.54.7-.5.36.02.63.3.6.6" style="fill:#fff"/><path d="m1664.94 1038.77-.37-.08z" style="fill:none"/><path d="m1664.57 1038.69-.21-.06zm3.33-.02" style="fill:#c1977d"/><path d="m1664.64 1038.34-.4-.1z" style="fill:none"/><path d="m1664.89 1038.4-.25-.06zm-.65-.15-.22-.06zm3.58-.01" style="fill:#c3987d"/><path d="m1664.45 1037.71-.4-.1z" style="fill:none"/><path d="m1664.7 1037.76-.25-.05zm-.64-.14-.23-.06zm3.57-.01" style="fill:#c3987d"/><path d="m1665.04 1037.63-.39-.1z" style="fill:none"/><path d="m1665.28 1037.68-.24-.05zm-.63-.14-.21-.06h-.01zm3.46-.02" style="fill:#c3987d"/><path d="M1702.29 991.9s-3.67 15.08-9.96 16.31-13.1-1.21-13.1-1.21-.65-17.72 2.57-20.04 10.64-5.68 20.49 4.95" style="fill:#fff"/><path d="M1679.23 1006.95q-.01-.02.46.18c.08-5.44.58-12.9 2.6-14.33 2.99-2.2 9.74-5.29 18.76 3.17.82-2.34 1.23-4.11 1.23-4.11-9.86-10.65-17.29-7.3-20.48-4.97-3.23 2.33-2.58 20.06-2.58 20.06" style="fill:#dcbc9b"/><path d="M1682.95 999.27a6.2 6.2 0 1 0 12.4.02 6.2 6.2 0 0 0-12.4-.02" style="fill:#4d2a12"/><path d="M1689.43 1003.41c1.79-.15 3.16-1.96 3-3.95s-1.81-3.54-3.6-3.4-3.16 1.96-3 3.95 1.81 3.55 3.6 3.4" style="fill:#80401c"/><path d="M1689.27 1002.7c1.25-.11 2.54-1.48 2.4-3.17-.14-1.7-1.63-2.83-2.88-2.73-1.24.1-2.53 1.48-2.4 3.17.14 1.69 1.64 2.82 2.88 2.72" style="fill:#241c09"/><path d="M1690.28 998.53c.05.61.68 1.06 1.4 1 .7-.06 1.25-.6 1.2-1.22-.05-.6-.67-1.05-1.39-1s-1.26.6-1.2 1.22m-4.02 3.53c.02.3.34.53.7.5s.62-.3.6-.61c-.03-.3-.34-.53-.7-.5s-.63.3-.6.6" style="fill:#fff"/><path d="M1659.83 992.18a16 16 0 0 0-3.52-3.61 20 20 0 0 0-10.02-4.18c-1.7-.19-3.59-.14-5.8.16a22 22 0 0 0-4.71 1.44c-1 .34-1.78.83-2.41 1.21q-.36.23-.68.4l-3 1.9 3.46-.82.52-.13c.71-.2 1.6-.43 2.65-.58l.75-.14q.66-.15 1.36-.2l1.62-.11.73-.06a21 21 0 0 1 4.98.46c1.57.27 3.19.78 4.67 1.47a25 25 0 0 1 3.79 2.1c2.11 1.42 3.3 2.6 3.3 2.62a1.5 1.5 0 0 0 2.34-1.88zm43.07-4.58-.66-.4a12 12 0 0 0-2.38-1.2 22 22 0 0 0-4.76-1.45 24 24 0 0 0-5.79-.16c-1.87.26-3.82.8-5.63 1.56a21 21 0 0 0-4.38 2.62 16 16 0 0 0-3.52 3.6l-.02.04c-.38.6-.3 1.4.2 1.9q.44.43 1.07.44.62-.01 1.06-.44l.01-.02c.11-.1 1.26-1.23 3.3-2.6a24 24 0 0 1 3.78-2.1 19 19 0 0 1 4.7-1.48q2.1-.48 4.93-.45l.76.06 1.62.11q.7.05 1.35.2l.75.14a23 23 0 0 1 3.18.72l3.47.81z" style="fill:#1a1a1a"/><path d="m1663.84 1040.55-.39-.09z" style="fill:none"/><path d="m1664.08 1040.6-.24-.05zm-.63-.14-.22-.06zm3.49-.01" style="fill:#c5997d"/><path d="M1658.58 1043.71c-.18-2.42 6.73.51 9 .58 1.81.06 7.25-.36 7.76-.55 3.8-1.43-.21 4.05-7.87 4.34-3.5.14-8.78-2.9-8.89-4.37" style="fill:#f3dbb5"/><path d="M1681.09 1039.04c-1.88-.1-3.8 1.48-6.06 1.24-.1-.05-.14-.05-.24-.05-.52-.09-1.03 0-1.6.14-.7.15-1.4.43-2.06.66-1.13.37-2.4.67-3.71.56v.01h-.15c-1.3.1-2.58-.2-3.7-.57-.66-.23-1.37-.51-2.07-.66a4 4 0 0 0-1.6-.14c-.1 0-.14 0-.23.05-2.26.24-4.19-1.33-6.06-1.24-.52.05-1.27-.1-1.7-.1l.29.15c5.35 2.61 9.96 7.51 15.07 7.36h.15c5.11.15 9.73-4.75 15.08-7.36l.28-.14c-.42 0-1.17.14-1.7.1" style="fill:#e2c8a4"/><path d="M1682.66 1038.9s-5.44-2.1-9.3-.88c0 0-1.45.57-2.94.91-.9.35-2 .46-3.07.42a17 17 0 0 1-3.1-.42l-.4-.1-.22-.05h.01c-1.23-.34-2.3-.75-2.3-.75-3.87-1.24-9.3.86-9.3.86l-.13.06c.43 0 1.18.14 1.7.1 1.87-.1 3.8 1.47 6.06 1.23q.12-.06.23-.05c.52-.09 1.03 0 1.6.14.7.15 1.4.44 2.07.67a10 10 0 0 0 3.7.56h.15c1.3.1 2.58-.2 3.7-.56.67-.23 1.37-.52 2.08-.67a4 4 0 0 1 1.83-.09c2.25.24 4.18-1.33 6.06-1.24.52.05 1.27-.09 1.69-.09z" style="fill:#cca686"/><path d="M1658.21 1040.17c.1.03 10.2 3.11 18.09.07l-.91-.61h-10.67z" style="fill:#cca686"/><path d="M1707.54 1111.6q.11 4.44.29 7.07v.02h-78.11v-.02c.18-2.87.37-7.52.4-13.62q.02-3.2-.02-6.93h-6.28a53 53 0 0 1 3.16-9.08c5.93-12.96 15.24-17.3 19.72-18.69 1.6-.5 2.58-.61 2.58-.61q.24 0 .48-.05c3.44 4.64 9.83 11.3 18.21 11.47q2.8.09 5.84-.9c4.22-1.43 8.83-4.6 13.72-10.4h.01c.74.16 2.03.46 3.66 1.1 4.85 1.93 12.73 6.66 17.96 18.08q.8 1.68 1.48 3.57.95 2.56 1.69 5.51h-4.87q-.06 3.73-.02 6.93 0 3.63.1 6.56" style="fill:#677499"/><path d="M1681.44 1056.34c-7.84.5-9.8-5.9-9.8-5.9-.72-2.17-2.05-2.87-3.43-2.9h-.05c-1.4.03-2.72.73-3.44 2.9 0 0-1.96 6.4-9.8 5.9 0 0 5.07 6.28 13.23 6.47h.06c8.17-.2 13.23-6.47 13.23-6.47" style="fill:#393b36"/><path d="M1664 1118.69v-17.43h-11.72l16.02-16.02v33.45z" style="fill:#465a7d"/><path d="M1672.58 1118.69v-17.43h11.72l-16.02-16.02v33.45z" style="fill:#465a7d"/><path d="M1728.37 976.47c-3.62-16.35-15.9-32.12-27.58-38.88a33 33 0 0 0-8.22-3.18 5.2 5.2 0 0 1-3.16-2.51c-1.22-2.13-3.69-3.99-6.95-5.34a4 4 0 0 0 .87-2.36c0-3.64-5.68-6.6-12.7-6.6s-12.7 2.96-12.7 6.6c0 .6.2 1.16.48 1.7-4 1.33-7.06 3.36-8.56 5.75a5.3 5.3 0 0 1-3.3 2.43 35 35 0 0 0-9.65 3.51c-11.68 6.76-23.94 22.53-27.56 38.88s-3.47 40.22 9.21 52.25l.39.36c3.69 3.45 10.29.21 8.83-4.35-2.21-6.96-2.66-16.21 1.26-28.15 3.8-11.58 32-30.63 36.22-32.65q.75-.36 1.4-.63c1.4-.58 3-.58 4.4 0q.65.27 1.4.63c4.24 2.02 32.44 21.06 36.22 32.65 3.92 11.94 3.47 21.18 1.26 28.15-1.45 4.56 5.15 7.79 8.84 4.34l.37-.35c12.69-12.03 12.83-35.9 9.23-52.25" style="fill:#393b34"/><path d="M1717.93 1107.82h-3.87c-.39-2.49-.45-4.44-1.03-6.62-.43-1.61-.72-3.64-1.24-5.08-5.16-14.71-14.14-21.6-19.92-24.53a28 28 0 0 0-4.38-1.79q1.39-1.4 2.86-2.98c2.96.88 13.2 4.66 21.06 16.75l.2.32a20 20 0 0 1 2.26 5.03 196 196 0 0 1 2.04 7.4c1.07 4.22 2.04 8.76 2.02 11.5m-99.24 0 3.43-.26c.39-2.49 1.2-4.85 1.78-7.03q.64-2.4 1.41-4.57c5.17-14.7 14.36-21.45 20.13-24.37 1.94-.98 3.5-1.51 4.39-1.78q-1.4-1.4-2.86-3c-2.96.9-13.21 4.67-21.06 16.76q-.86 1.35-1.68 2.8s-2.2 4.6-3.53 9.85c-1.06 4.21-2.03 8.86-2.01 11.6m78.19-11.64h-8.07v5.42l-7.41-7.41h15.48z" style="fill:#465a7d"/><path d="M1696.88 1092.21h-8.07v-5.42l-7.41 7.41h15.48zm-56.9 3.97h8.07v5.42l7.41-7.42h-15.48z" style="fill:#465a7d"/><path d="M1639.98 1092.2h8.07v-5.42l7.41 7.41h-15.48z" style="fill:#465a7d"/><path d="M1687.93 1054.73c-.66-2.54-1-5.3-.91-8.1.2-5.73-.15-1.96-1.82-7.73-2.08-7.2-5.94-8.86-9.32-9.35a9 9 0 0 0-4.13.2c-2.28.79-4.62.79-6.9 0a9 9 0 0 0-4.13-.2c-3.38.49-7.24 2.15-9.32 9.35-1.67 5.77-2.02 2-1.82 7.74.1 2.8-.25 5.55-.91 8.09-.7 2.67-.89 6.25 1.94 8.53.8.65 1.52 1.64 2.04 2.92l.15.35c.29.7.9.17.8-.67-.63-4.66-.72-12.43 4.56-16.55 3.46-2.71 4.89-3.33 8.06-5.58a6.6 6.6 0 0 0 2.08-2.34 6.5 6.5 0 0 0 2.08 2.34c3.17 2.25 4.6 2.87 8.06 5.58 5.28 4.12 5.2 11.89 4.57 16.55-.12.84.5 1.36.8.67l.14-.35a7 7 0 0 1 2.04-2.92c2.83-2.28 2.64-5.86 1.94-8.53" style="fill:#403f38"/></svg>