<svg xmlns="http://www.w3.org/2000/svg" xmlns:xlink="http://www.w3.org/1999/xlink" width="886.4" height="895.7" viewBox="0 1118.54 886.4 895.7"><path d="M348.88 1079.26h577.21v583.63H348.88z" style="fill:#e65b2f"/><path d="M455.93 1687.1v327.04H278.58l-4.32-1.74c0-15.77.9-30.27 2.52-43.52q.74-6.45 1.74-12.47c1.27-7.6 2.77-14.8 4.5-21.51a197 197 0 0 1 6.74-22.18c.54-1.38 1.02-2.76 1.56-4.08q.9-2.23 1.8-4.37.88-2.14 1.86-4.2a125 125 0 0 1 3.85-8.03q3.43-6.67 7.2-12.53 1-1.62 1.99-3.06 4.87-7.21 10.03-13.24c.96-1.08 1.93-2.22 2.89-3.24q1.44-1.6 2.88-3.12c.96-.96 1.98-1.98 2.94-2.87q1.45-1.44 2.89-2.7c1.92-1.8 3.9-3.48 5.83-4.98.9-.72 1.8-1.44 2.7-2.03a114 114 0 0 1 23.49-13.97l2.88-1.26q4.5-1.8 8.11-2.88a59 59 0 0 1 10.1-2.4c.72 0 1.32-.05 1.98-.17 5.59-.9 10.1-5.76 13.76-13.43 2.7-5.75 4.92-13.07 6.79-21.52.72-3.36 1.32-6.65 1.86-10.25q1.37-9.09 2.46-19c.3-4.02.72-7.91 1.14-12.1 1.62-20.03 2.04-41.9 2.04-62.64 0 0 23.8 2.45 43.14 2.45" style="fill:#e5c69f"/><path d="M638.32 2012.4s-1.56.6-4.2 1.74H455.93V1687.1h.42c19.23 0 43.32-2.45 43.32-2.45 0 20.55.42 42.2 1.98 62.21.48 3.9.9 7.92 1.2 11.81a313 313 0 0 0 2.58 19.42v.12c.3 2.76.84 5.22 1.33 7.8 1.74 8.5 3.84 16 6.42 22 3.19 7.48 7.03 12.7 11.78 14.74a11 11 0 0 0 4.74 1.02s6.8.77 17 4.8a110 110 0 0 1 22.77 12.1c1.15.72 2.29 1.56 3.43 2.4.6.42 1.26.9 1.86 1.44q.62.38 1.14.84a99 99 0 0 1 6.43 5.4c.84.71 1.62 1.49 2.46 2.27.96.84 1.87 1.74 2.83 2.76q.98.89 1.86 1.85a92 92 0 0 1 3.84 4.26c.66.72 1.33 1.44 1.93 2.22q4.34 5.01 8.4 11.03c1.2 1.67 2.29 3.41 3.43 5.21q3.42 5.49 6.67 11.69a186 186 0 0 1 9.07 20.68q3.8 10.23 6.79 22.18c1.74 6.7 3.24 13.9 4.44 21.51a241 241 0 0 1 1.75 12.47 358 358 0 0 1 2.52 43.52" style="fill:#f2dab5"/><defs><path id="a" d="M407.17 1746.43h98.26v57.81h-98.26z"/></defs><clipPath id="b"><use xlink:href="#a" style="overflow:visible"/></clipPath><path d="M505.43 1777.49v.14c-4.47 6.86-19.48 26.61-49.2 26.61h-.29c-28.13-.14-44.58-20.46-48.77-26.47.87-6 1.73-12.3 2.45-18.89.3-3.86.72-7.87 1.16-12.02a199 199 0 0 0 44.58 5.87h.58a191 191 0 0 0 45.74-6.3c.43 3.87.86 7.88 1.15 11.74q1.1 10.3 2.6 19.31" style="clip-path:url(#b);fill:#c69f82"/><path d="M453.92 1314.32c-187.86 0-188.87 156.68-180.5 259.27-12.84-24.32-51.08-16.88-47.9 21.46 3.03 36.92 57.65 55.73 56.12 51.66 28.45 75.87 103.75 133.06 172.28 133.06h1.44v-465.45z" style="fill:#d7ae89"/><path d="M237.5 1578.88c9.23-14.88 23.65-8.44 27.12-5.15 3.75 3.58 6.78 8.16 4.47 16.89-1.3 5-6.5 5.43-5.34 12.87 1.44 8.45 5.34 8.87 7.65 10.88 2.16 1.86 4.9 3.29 6.2 6.87 1.45 3.57 1.6 7.3.87 10.58-1.44 6.01-10.25 1.15-16.16-1.43-3.9-1.86-16.3-12.3-19.48-15.74-7.8-8.87-11.54-26.04-5.34-35.77" style="fill:#b48e76"/><path d="M454.93 1314.32c187.86 0 188.87 156.68 180.65 259.27 12.84-24.32 50.93-16.88 47.76 21.46-2.89 36.92-57.63 55.75-56.13 51.66-27.71 75.87-103.74 133.06-172.28 133.06h-1l-.44-465.45z" style="fill:#e1be9d"/><path d="M671.36 1578.88c-9.23-14.88-23.52-8.44-27.13-5.15-3.75 3.58-6.63 8.16-4.47 16.89 1.3 5 6.5 5.43 5.34 12.87-1.44 8.45-5.34 8.87-7.5 10.88-2.17 1.86-5.05 3.29-6.35 6.87a19.3 19.3 0 0 0-.87 10.58c1.44 6.01 10.25 1.15 16.16-1.43 4.04-1.86 16.3-12.3 19.48-15.74 7.94-8.87 11.54-26.04 5.34-35.77" style="fill:#b48e76"/><path d="M452.44 1358.54c-61.75 0-107.06 17.88-134.33 53.08-38.23 49.36-36.8 124.63-22.8 178.71 4.33 16.6 6.64 61.1 9.53 77.4 13.42 73.12 94.36 112.04 147.6 112.04h1.45v-421.23h-.87" style="fill:#e5c69f"/><path d="M586.63 1411.76c-27.13-35.05-71.85-52.94-132.74-53.22v421.23c60.89-.71 133.75-43.35 146.16-112.03 3.03-16.31 5.2-60.81 9.52-77.4 14.14-53.95 15.58-129.07-22.94-178.58" style="fill:#f2dab5"/><path d="M443.15 1704.91c-.54-.12-1.07-.23-1.41-.32l1.4.32" style="fill:none"/><path d="m444.03 1705.1-.88-.19zm-2.29-.5-.79-.23-.03.01zm12.71-.06" style="fill:#c3987d"/><path d="M285.47 1489.84a107 107 0 0 0-3.65 18.18s2.48-10.26 7.94-25.46c-2.34 3.25-3.9 5.85-4.3 7.28" style="fill:none"/><path d="m401.44 1359.59-.78.78.13.26c.26-.4.39-.78.65-1.04m-119.62 148.43" style="fill:#473217"/><path d="M443.64 1696.36c-.55-.12-1.1-.24-1.45-.33q.71.18 1.44.33" style="fill:none"/><path d="m444.54 1696.56-.9-.2zm-2.35-.53-.8-.22h-.04s.31.1.84.22m13.05-.05" style="fill:#c1977d"/><path d="M417.17 1650.05c-.73-14.95 27.53-5.47 36.84-5 7.36.38 29.76-4.71 31.68-3.4 13.18 8.86-13.95 26.72-32.14 26.72-4.85 0-35.94-9.3-36.38-18.32" style="fill:#e1bd9c"/><path d="M319.12 1522.95s14.33 58.66 38.94 63.45c24.6 4.78 51.23-4.73 51.23-4.73s2.55-68.94-10.05-77.95c-12.59-9.05-41.61-22.12-80.12 19.23" style="fill:#fff"/><path d="M409.33 1581.49s-.57.16-1.83.68c-.32-21.14-2.28-50.19-10.14-55.75-11.7-8.54-38.12-20.57-73.4 12.32-3.21-9.09-4.82-15.98-4.82-15.98 38.58-41.42 67.63-28.37 80.12-19.32 12.61 9.05 10.07 78.04 10.07 78.04" style="fill:#dcbc9b"/><ellipse cx="370.54" cy="1551.61" rx="24.22" ry="24.16" style="fill:#4d2a12"/><path d="M369.41 1567.7c-6.99-.57-12.36-7.61-11.72-15.36.62-7.73 7.07-13.8 14.07-13.2 7 .57 12.35 7.6 11.74 15.34-.64 7.74-7.1 13.8-14.09 13.22" style="fill:#80401c"/><path d="M370.02 1564.91c-4.87-.41-9.92-5.74-9.38-12.3.54-6.59 6.39-11.03 11.26-10.63 4.87.41 9.9 5.76 9.37 12.33s-6.4 11-11.25 10.6" style="fill:#241c09"/><path d="M366.08 1548.72c-.2 2.37-2.65 4.1-5.44 3.88-2.8-.24-4.92-2.36-4.73-4.72.2-2.38 2.63-4.12 5.43-3.89 2.81.23 4.93 2.35 4.74 4.73m15.7 13.72c-.1 1.18-1.32 2.05-2.72 1.94s-2.45-1.18-2.37-2.36c.1-1.18 1.32-2.05 2.72-1.93 1.4.1 2.47 1.16 2.37 2.35" style="fill:#fff"/><path d="M444.02 1703.28c-.55-.12-1.1-.24-1.44-.33q.71.18 1.44.33" style="fill:none"/><path d="m444.93 1703.48-.9-.2zm-2.35-.53-.81-.23-.03.02zm13.05-.05" style="fill:#c1977d"/><path d="m442.85 1701.61-1.55-.35z" style="fill:none"/><path d="m443.83 1701.82-.98-.21zm-2.53-.56-.86-.25-.03.02zm14-.06" style="fill:#c3987d"/><path d="m442.13 1699.16-1.55-.36q.77.2 1.55.36" style="fill:none"/><path d="m443.1 1699.37-.97-.21zm-2.52-.57-.87-.24-.03.01s.34.1.9.23m13.99-.05" style="fill:#c3987d"/><path d="m444.41 1698.83-1.5-.34z" style="fill:none"/><path d="m445.35 1699.03-.94-.2zm-2.43-.54-.84-.24-.03.02zm13.52-.05" style="fill:#c3987d"/><path d="M590.13 1520.95s-14.34 58.66-38.94 63.45-51.24-4.73-51.24-4.73-2.54-68.94 10.05-77.95c12.6-9.05 41.61-22.12 80.13 19.23" style="fill:#fff"/><path d="M499.92 1579.49s.56.16 1.83.69c.31-21.15 2.27-50.2 10.14-55.76 11.7-8.54 38.11-20.57 73.4 12.33 3.2-9.1 4.82-15.98 4.82-15.98-38.58-41.43-67.63-28.38-80.13-19.32-12.6 9.04-10.06 78.04-10.06 78.04" style="fill:#dcbc9b"/><path d="M514.49 1549.62a24.2 24.2 0 0 0 24.22 24.16 24.2 24.2 0 0 0 24.21-24.16 24.2 24.2 0 0 0-24.21-24.16 24.2 24.2 0 0 0-24.22 24.16" style="fill:#4d2a12"/><path d="M539.83 1565.7c7-.57 12.36-7.6 11.73-15.35s-7.08-13.8-14.08-13.21c-6.99.57-12.35 7.6-11.73 15.34.63 7.74 7.09 13.81 14.08 13.23" style="fill:#80401c"/><path d="M539.23 1562.92c4.86-.42 9.91-5.75 9.38-12.3-.55-6.6-6.4-11.04-11.26-10.64-4.87.41-9.91 5.77-9.37 12.33.53 6.57 6.39 11 11.25 10.6" style="fill:#241c09"/><path d="M543.17 1546.73c.2 2.37 2.64 4.1 5.44 3.87 2.8-.24 4.91-2.36 4.72-4.72-.2-2.38-2.63-4.11-5.43-3.88-2.8.22-4.92 2.34-4.73 4.72m-15.7 13.73c.1 1.18 1.32 2.05 2.71 1.93 1.4-.11 2.46-1.18 2.37-2.36-.1-1.18-1.32-2.05-2.71-1.93-1.41.1-2.47 1.17-2.37 2.36" style="fill:#fff"/><path d="M424.07 1522.01c-.19-.29-4.65-7.06-13.78-14.04a79 79 0 0 0-17.14-10.2 89 89 0 0 0-22.05-6.05c-6.67-.74-14.06-.55-22.68.61-6.58 1.25-13 3.2-18.45 5.6a47 47 0 0 0-9.43 4.72c-.94.58-1.8 1.1-2.66 1.57l-11.76 7.37 13.55-3.18q.94-.23 2.05-.53c2.8-.74 6.28-1.66 10.37-2.26a56 56 0 0 0 2.93-.53c1.7-.34 3.46-.7 5.31-.78q3.08-.2 6.37-.44l2.84-.2c7.5-.1 13.84.47 19.47 1.76a74 74 0 0 1 18.27 5.72c5.48 2.61 10.73 5.2 14.82 8.2 8.28 5.51 12.88 10.1 12.93 10.15a5.9 5.9 0 0 0 9.14-7.31zm168.47-17.85q-1.15-.62-2.58-1.51a46 46 0 0 0-9.3-4.67 88 88 0 0 0-18.65-5.66c-8.55-1.15-15.94-1.35-22.63-.6a89 89 0 0 0-22.03 6.06 80 80 0 0 0-17.13 10.19c-8.96 6.85-13.42 13.5-13.76 14.02l-.08.12a5.94 5.94 0 0 0 .77 7.4 5.83 5.83 0 0 0 8.33 0l.05-.06c.44-.43 4.9-4.79 12.93-10.13 4.03-2.96 9.29-5.55 14.75-8.16a75 75 0 0 1 18.37-5.75c5.55-1.27 11.9-1.83 19.3-1.75l2.99.21 6.34.45c1.82.08 3.58.43 5.28.77q1.5.32 2.92.53c4.1.6 7.58 1.52 10.39 2.26q1.09.3 2.06.54l13.54 3.17z"/><path d="m435.34 1723.76-1.44-.33z" style="fill:none"/><path d="m436.24 1723.95-.9-.2zm-2.34-.52-.8-.23-.03.01zm12.97-.05" style="fill:#c5997d"/><path d="m434.67 1721.48-1.44-.33q.71.18 1.44.33" style="fill:none"/><path d="m435.57 1721.67-.9-.19zm-2.34-.52-.8-.22-.03.01zm12.97-.05" style="fill:#c5997d"/><path d="m436.78 1721.18-1.39-.32c.47.12.92.2 1.4.32" style="fill:none"/><path d="m437.65 1721.36-.87-.18zm-2.25-.5-.78-.22-.03.01s.3.09.8.21m12.54-.05" style="fill:#c5997d"/><path d="M417.98 1728.35c-.7-9.33 26.02 1.95 34.8 2.22 7 .23 28.03-1.38 29.97-2.12 14.7-5.49-.8 15.58-30.41 16.69-13.56.54-33.96-11.14-34.36-16.8" style="fill:#f3dbb5"/><path d="M506.06 1705.96c-16.94-3.17-52.65.2-52.65.2-29.44 4.89-52.48-.3-52.65-.1-.7.07 23.51 32.11 52.25 30.63 28.74 1.48 53.76-30.63 53.05-30.74" style="fill:#c56b70"/><path d="M470.44 1699.19c-7.64-.84-13.08 4.65-17 4.25-3.98.37-9.16-3.15-16.84-3.23-10.8-.1-16.08-1.05-35.84 5.85.7 1.34 13.37 8.65 37.08 9.06.33 0 6.7 3.6 15.74 3.53 5.66-.03 13.43-3.8 13.73-3.8 23.75-.37 38.25-7.41 38.92-8.72-26.12-8.08-24.05-7.05-35.8-6.94" style="fill:#d87a77"/><path d="M610.66 1886.32c-162.57 94.94-270.4 22-304.17-7.56q.74-1.25 1.56-2.33c3.18-4.8 6.55-9.23 9.97-13.25 1.03-1.08 1.93-2.22 2.95-3.24q1.35-1.6 2.88-3.12c.9-.95 1.98-1.97 2.89-2.87.96-.96 1.98-1.86 2.88-2.7a87 87 0 0 1 5.89-4.97c.84-.72 1.74-1.44 2.7-2.04 19.22 18.28 56.95 47.3 105.61 51.67h26.56v-.12c31.72-3.18 67.04-17.75 104.35-51.31h.06q3.71 2.8 7.51 6.23c.84.72 1.62 1.5 2.52 2.28.9.84 1.87 1.74 2.77 2.76q1.07.89 1.86 1.85a91 91 0 0 1 3.84 4.26c.66.72 1.39 1.44 1.93 2.22a119 119 0 0 1 11.83 16.24c1.2 1.92 2.4 3.96 3.6 6" style="fill:#f8bf00"/><path d="m635.77 1968.85-16.4 3.9a16.6 16.6 0 0 0-12.74 16.12v25.24H305.9v-25.24a16.6 16.6 0 0 0-12.8-16.12l-16.34-3.9c.54-4.31 1.08-8.45 1.8-12.46q1.8-11.43 4.5-21.52a175 175 0 0 1 6.74-22.18c.48-1.38 1.02-2.76 1.5-4.08.66-1.5 1.2-2.93 1.86-4.37a37 37 0 0 1 1.86-4.2c1.15-2.81 2.53-5.45 3.79-8.03a164 164 0 0 1 7.2-12.53q.2-.36.49-.72c33.76 29.55 141.6 102.5 304.17 7.56 1.02 1.85 2.1 3.77 3.12 5.69a186 186 0 0 1 7.51 16.6c.48 1.32 1.08 2.7 1.56 4.08 2.53 6.83 4.81 14.2 6.73 22.18q2.7 10.08 4.5 21.52c.67 4.01 1.2 8.15 1.69 12.46" style="fill:#ef8f00"/><path d="M628.3 1641.01h.22v-.05z" style="fill:#403f38"/><path d="M349.68 1379s-2.39 72.51-14.39 95.48c-12.03 22.9-5.72 40.05-82.16 62.14-47.23 13.62-124.45 2.73-150.9-74.21-6.96-20.25-27.14-66.26 51.84-71.93 78.92-5.75 195.6-11.49 195.6-11.49" style="fill:#005259"/><path d="M676.5 1508.48c.17-32.96 10.56-20.74-.9-60.65a544 544 0 0 0-8.3-26.12v-3.57c0-34.94-26.13-80.23-67.66-124.26-41.55-43.97-67.68-34.92-102.07-33.66 0 0-.12.28-.28.72-15.1-3.82-79.96 71.17-128.28 92.23-53.42 23.33-113.51-30.7-144.4 76.75-30.85 107.41-5.52 195.4.44 232.95C244.03 1781.74 335 1857.01 335 1857.01s-22.97-31.73-33.23-63.39c-7.97-24.57-19.87-66.77-19.87-128.88 0-62.14 51.92-139.04 51.92-139.04s-23.96 48.24-28.66 101.32c-4.79 53.05 20.33 94.1 20.33 94.1s-31.8-68.94 19-120.38a383 383 0 0 0 40.61-49.04q-.04.05-.04.12c-12.75 40.64 12.85 74.82 12.85 74.82s-.47-52.17 26.04-69.9c64.57-43.16 74.84-61 83.94-95.75a94 94 0 0 0 2.42-13.35l59.01 100.49a397 397 0 0 1 12.53 21.34 426 426 0 0 1 9.57 18.46c.75 2.69 1.53 5.31 2.22 8.05a247 247 0 0 1 6.3 33.15c.58 4.23.91 8.49 1.17 12.77.37 7.09.34 14.2-.34 21.26-.3 2.66-.28 5.86-.7 8.23l-1.33 9.05c-1.12 5.45-2.13 10.73-3.77 16.4l-1.93 6.77a782 782 0 0 1-7.92 26.52l-1.2 4a321 321 0 0 0-4.55 16.23c-3.79 15.1-6.17 29.86-5.93 43.13-.2 9.57.84 18.27 2.37 25.8 1.11 7.59 3.46 13.9 4.9 19.13.9 2.75 1.84 5.09 2.7 7.1-9.24 17.04-18.2 29.43-18.2 29.43s8.9-7.36 21.7-21.12l.19.42-.07-.54a377 377 0 0 0 47.52-63.47c-1.1 4.13-2.32 8.22-3.76 12.23-16.38 45.97-19.67 103.71-9.85 135.78 9.85 32.06 33.9 66.27 33.9 66.27s-21.01-38.74-26.24-88.7c-7.92-75.78 43.43-138.15 43.43-213.41q0-2.2-.17-4.74a279 279 0 0 0 3.28-16.89c1.97-12.37 6.04-30.26 9.5-52.5 41.12 55.86 86.66 43.55 86.66 43.55-39.83-16.55-79.65-118.89-94.8-163.35m-90.82 332.75q-.2-1.74-.4-3.68c-.2-5.33-.85-11.72-.53-18.96-.03-3.66.1-7.47.57-11.54.3-3.99.69-8.23 1.48-12.57 1.3-8.7 3.84-17.86 6.68-27.54 3.09-9.7 7.17-19.71 11.13-30.37 4.05-10.62 8.75-21.85 12.13-33.92.46-1.5.88-3.1 1.3-4.7-1.74 53.8-12.3 91.1-19.61 113.59-3.32 10.26-7.97 20.5-12.75 29.7" style="fill:#111209"/><path d="M273.04 1367.73s7.38-125.16 46.06-137.97c38.7-12.81 114.57-39.98 175.07-25.33 63.5 15.32 175.3 34.31 187.96 144.16 6.18 53.67-4.5 165.94-4.5 165.94s-1.03-55.21-41.54-89.6c-40.58-34.3-86.64-74.2-165.88-68.61-79.22 5.66-197.17 11.41-197.17 11.41" style="fill:#2984a0"/><path d="M273.5 1357.35c-20.59 11.34-22.1 13.18-39.4 16.12-37.65 6.55-76.54 10.94-102.08 14.21-26.35 3.38-34.88 1.12-37.71 27.76-1.56 14.63.43 12.54.43 12.54s-.94-15.96 23.55-22.11c25.57-6.43 90.98 31.14 178.51 23.56 87.53-7.66 203.26-70.76 203.26-70.76s-50.58-18.4-88.33-19.95-138.23 18.63-138.23 18.63" style="fill:#fff"/></svg>